<svg width="1086" height="145" viewBox="0 0 1086 145" fill="none" xmlns="http://www.w3.org/2000/svg">
<g filter="url(#filter0_ddddddd_63_402)">
<path d="M100.793 88.2151C100.891 88.2151 100.94 88.3639 100.94 88.6614C100.94 88.9588 100.891 89.1076 100.793 89.1076H87.6974C86.6184 89.1076 84.6074 87.0748 81.6645 83.0093C78.7216 78.8942 75.1656 73.1678 70.9966 65.83C70.6042 65.8796 70.0401 65.9044 69.3044 65.9044C67.3915 65.9044 66.0427 65.8796 65.258 65.83V83.0837C65.258 84.6206 65.3806 85.7362 65.6258 86.4303C65.8711 87.1244 66.337 87.5954 67.0237 87.8433C67.7594 88.0912 68.912 88.2151 70.4816 88.2151C70.5797 88.2151 70.6287 88.3639 70.6287 88.6614C70.6287 88.9588 70.5797 89.1076 70.4816 89.1076C68.863 89.1076 67.5877 89.0828 66.6558 89.0332L61.0644 88.9588L55.6936 89.0332C54.7126 89.0828 53.3883 89.1076 51.7207 89.1076C51.5736 89.1076 51.5 88.9588 51.5 88.6614C51.5 88.3639 51.5736 88.2151 51.7207 88.2151C53.2903 88.2151 54.4184 88.0912 55.105 87.8433C55.8407 87.5954 56.3312 87.1244 56.5765 86.4303C56.8708 85.6866 57.0179 84.571 57.0179 83.0837V48.6507C57.0179 47.1633 56.8953 46.0726 56.65 45.3785C56.4048 44.6844 55.9143 44.2134 55.1786 43.9655C54.4429 43.668 53.3148 43.5193 51.7943 43.5193C51.6962 43.5193 51.6471 43.3705 51.6471 43.073C51.6471 42.7756 51.6962 42.6268 51.7943 42.6268L55.6936 42.7012C57.9498 42.8004 59.7401 42.8499 61.0644 42.8499C62.4867 42.8499 64.0563 42.7756 65.773 42.6268C66.3125 42.5772 66.9992 42.5277 67.833 42.4781C68.7158 42.4285 69.7458 42.4037 70.923 42.4037C75.4354 42.4037 78.9178 43.2466 81.3702 44.9323C83.8717 46.5684 85.1224 48.8738 85.1224 51.8486C85.1224 54.1293 84.4357 56.3108 83.0624 58.3931C81.689 60.4754 79.8988 62.1611 77.6916 63.4502C81.6155 69.6972 84.9017 74.5808 87.5503 78.1009C90.2479 81.6211 92.6267 84.1992 94.6867 85.8353C96.7958 87.4219 98.8313 88.2151 100.793 88.2151ZM65.258 63.6733C66.4351 63.8716 67.8575 63.9708 69.5251 63.9708C71.2909 63.9708 72.6887 63.6981 73.7187 63.1527C74.7487 62.6073 75.4845 61.6653 75.9259 60.3267C76.4164 58.988 76.6616 57.104 76.6616 54.6746C76.6616 50.6091 76.073 47.8079 74.8959 46.2709C73.7187 44.7339 72.0266 43.9655 69.8194 43.9655C68.1518 43.9655 66.9746 44.3373 66.288 45.081C65.6013 45.8247 65.258 47.0642 65.258 48.7995V63.6733Z" fill="white"/>
<path d="M122.662 83.0837C122.662 84.6206 122.785 85.7362 123.03 86.4303C123.275 87.1244 123.741 87.5954 124.428 87.8433C125.163 88.0912 126.316 88.2151 127.886 88.2151C128.033 88.2151 128.106 88.3639 128.106 88.6614C128.106 88.9588 128.033 89.1076 127.886 89.1076C126.267 89.1076 124.992 89.0828 124.06 89.0332L118.468 88.9588L113.024 89.0332C112.043 89.0828 110.719 89.1076 109.051 89.1076C108.953 89.1076 108.904 88.9588 108.904 88.6614C108.904 88.3639 108.953 88.2151 109.051 88.2151C110.621 88.2151 111.773 88.0912 112.509 87.8433C113.245 87.5954 113.735 87.1244 113.98 86.4303C114.275 85.6866 114.422 84.571 114.422 83.0837V48.6507C114.422 47.1633 114.275 46.0726 113.98 45.3785C113.735 44.6844 113.245 44.2134 112.509 43.9655C111.773 43.668 110.621 43.5193 109.051 43.5193C108.953 43.5193 108.904 43.3705 108.904 43.073C108.904 42.7756 108.953 42.6268 109.051 42.6268L113.024 42.7012C115.28 42.8004 117.095 42.8499 118.468 42.8499C119.989 42.8499 121.877 42.8004 124.133 42.7012L127.886 42.6268C128.033 42.6268 128.106 42.7756 128.106 43.073C128.106 43.3705 128.033 43.5193 127.886 43.5193C126.365 43.5193 125.237 43.668 124.501 43.9655C123.765 44.2629 123.275 44.7835 123.03 45.5272C122.785 46.2213 122.662 47.3121 122.662 48.7995V83.0837Z" fill="white"/>
<path d="M167.967 41.8088C170.125 41.8088 172.382 42.0071 174.736 42.4037C177.09 42.7508 178.93 43.2218 180.254 43.8167C180.695 43.9655 180.965 44.1638 181.063 44.4117C181.21 44.61 181.333 44.9819 181.431 45.5272L182.314 55.8645C182.314 56.0133 182.191 56.1124 181.946 56.162C181.701 56.2116 181.554 56.1372 181.505 55.9389C179.837 52.0221 177.605 48.9978 174.809 46.8659C172.014 44.734 168.777 43.668 165.098 43.668C160.242 43.668 156.49 45.4776 153.841 49.0969C151.193 52.7162 149.869 57.575 149.869 63.6733C149.869 68.2346 150.58 72.3993 152.002 76.1673C153.474 79.9354 155.509 82.9349 158.109 85.166C160.757 87.3475 163.749 88.4382 167.084 88.4382C170.223 88.4382 173.019 87.3971 175.472 85.3147C177.973 83.1828 180.205 79.9602 182.167 75.6467C182.216 75.4484 182.363 75.3741 182.608 75.4236C182.902 75.4732 183.05 75.5724 183.05 75.7211L181.946 85.8353C181.848 86.4303 181.725 86.8269 181.578 87.0252C181.48 87.174 181.21 87.3475 180.769 87.5458C176.404 89.1819 171.916 90 167.305 90C161.321 90 156.318 88.8101 152.296 86.4303C148.275 84.0009 145.307 80.9517 143.394 77.2829C141.53 73.5644 140.599 69.6972 140.599 65.6813C140.599 60.9712 141.849 56.8065 144.351 53.1873C146.901 49.5679 150.261 46.7667 154.43 44.7835C158.648 42.8004 163.161 41.8088 167.967 41.8088Z" fill="white"/>
<path d="M244.846 88.2151C245.091 88.2151 245.214 88.3639 245.214 88.6614C245.214 88.9588 245.091 89.1076 244.846 89.1076C243.865 89.1076 242.345 89.058 240.285 88.9588C238.126 88.8597 236.581 88.8101 235.649 88.8101C234.423 88.8101 232.927 88.8597 231.162 88.9588C229.494 89.058 228.17 89.1076 227.189 89.1076C226.993 89.1076 226.894 88.9588 226.894 88.6614C226.894 88.3639 226.993 88.2151 227.189 88.2151C228.464 88.2151 229.371 88.0912 229.911 87.8433C230.499 87.5458 230.794 87.05 230.794 86.3559C230.794 85.5131 230.303 84.1 229.322 82.1169L221.671 66.8712H208.575L203.351 78.5471C202.714 79.985 202.395 81.3236 202.395 82.5631C202.395 84.3479 203.008 85.7362 204.234 86.7278C205.51 87.7193 207.202 88.2151 209.311 88.2151C209.556 88.2151 209.679 88.3639 209.679 88.6614C209.679 88.9588 209.556 89.1076 209.311 89.1076C208.428 89.1076 207.153 89.058 205.485 88.9588C203.621 88.8597 202.003 88.8101 200.629 88.8101C199.305 88.8101 197.711 88.8597 195.847 88.9588C194.179 89.058 192.831 89.1076 191.801 89.1076C191.604 89.1076 191.506 88.9588 191.506 88.6614C191.506 88.3639 191.604 88.2151 191.801 88.2151C193.174 88.2151 194.327 87.9425 195.258 87.3971C196.19 86.8021 197.122 85.7857 198.054 84.3479C198.986 82.8606 200.09 80.6791 201.365 77.8035L217.33 42.3294C217.428 42.1806 217.649 42.1062 217.992 42.1062C218.385 42.1062 218.605 42.1806 218.654 42.3294L237.047 78.919C238.764 82.4391 240.186 84.8685 241.315 86.2072C242.443 87.5458 243.62 88.2151 244.846 88.2151ZM209.531 64.7888H220.641L214.755 53.0385L209.531 64.7888Z" fill="white"/>
<path d="M302.734 88.2151C302.832 88.2151 302.881 88.3639 302.881 88.6614C302.881 88.9588 302.832 89.1076 302.734 89.1076H289.638C288.559 89.1076 286.548 87.0748 283.605 83.0093C280.662 78.8942 277.106 73.1678 272.937 65.83C272.545 65.8796 271.981 65.9044 271.245 65.9044C269.332 65.9044 267.983 65.8796 267.199 65.83V83.0837C267.199 84.6206 267.321 85.7362 267.566 86.4303C267.812 87.1244 268.278 87.5954 268.964 87.8433C269.7 88.0912 270.853 88.2151 272.422 88.2151C272.52 88.2151 272.569 88.3639 272.569 88.6614C272.569 88.9588 272.52 89.1076 272.422 89.1076C270.804 89.1076 269.528 89.0828 268.596 89.0332L263.005 88.9588L257.634 89.0332C256.653 89.0828 255.329 89.1076 253.661 89.1076C253.514 89.1076 253.441 88.9588 253.441 88.6614C253.441 88.3639 253.514 88.2151 253.661 88.2151C255.231 88.2151 256.359 88.0912 257.046 87.8433C257.781 87.5954 258.272 87.1244 258.517 86.4303C258.811 85.6866 258.959 84.571 258.959 83.0837V48.6507C258.959 47.1633 258.836 46.0726 258.591 45.3785C258.345 44.6844 257.855 44.2134 257.119 43.9655C256.384 43.668 255.255 43.5193 253.735 43.5193C253.637 43.5193 253.588 43.3705 253.588 43.073C253.588 42.7756 253.637 42.6268 253.735 42.6268L257.634 42.7012C259.89 42.8004 261.681 42.8499 263.005 42.8499C264.427 42.8499 265.997 42.7756 267.714 42.6268C268.253 42.5772 268.94 42.5277 269.774 42.4781C270.656 42.4285 271.687 42.4037 272.864 42.4037C277.376 42.4037 280.858 43.2466 283.311 44.9323C285.812 46.5684 287.063 48.8738 287.063 51.8486C287.063 54.1293 286.376 56.3108 285.003 58.3931C283.63 60.4754 281.839 62.1611 279.632 63.4502C283.556 69.6972 286.842 74.5808 289.491 78.1009C292.189 81.6211 294.567 84.1992 296.627 85.8353C298.736 87.4219 300.772 88.2151 302.734 88.2151ZM267.199 63.6733C268.376 63.8716 269.798 63.9708 271.466 63.9708C273.232 63.9708 274.629 63.6981 275.659 63.1527C276.689 62.6073 277.425 61.6653 277.867 60.3267C278.357 58.988 278.602 57.104 278.602 54.6746C278.602 50.6091 278.014 47.8079 276.837 46.2709C275.659 44.7339 273.967 43.9655 271.76 43.9655C270.092 43.9655 268.915 44.3373 268.229 45.081C267.542 45.8247 267.199 47.0642 267.199 48.7995V63.6733Z" fill="white"/>
<path d="M331.886 89.405C330.317 89.405 328.453 89.3307 326.295 89.1819C325.51 89.1324 324.529 89.0828 323.352 89.0332C322.224 88.9836 320.948 88.9588 319.526 88.9588L314.082 89.0332C313.101 89.0828 311.777 89.1076 310.109 89.1076C310.011 89.1076 309.962 88.9588 309.962 88.6614C309.962 88.3639 310.011 88.2151 310.109 88.2151C311.678 88.2151 312.831 88.0912 313.567 87.8433C314.302 87.5954 314.793 87.1244 315.038 86.4303C315.332 85.6866 315.48 84.571 315.48 83.0837V48.6507C315.48 47.1633 315.332 46.0726 315.038 45.3785C314.793 44.6844 314.302 44.2134 313.567 43.9655C312.88 43.668 311.777 43.5193 310.256 43.5193C310.109 43.5193 310.035 43.3705 310.035 43.073C310.035 42.7756 310.109 42.6268 310.256 42.6268L314.155 42.7012C316.412 42.8004 318.202 42.8499 319.526 42.8499C321.537 42.8499 323.597 42.7756 325.706 42.6268C328.257 42.5277 329.973 42.4781 330.856 42.4781C335.81 42.4781 340.2 43.4697 344.026 45.4529C347.9 47.436 350.892 50.1381 353.001 53.5591C355.11 56.9801 356.165 60.8225 356.165 65.0863C356.165 69.8955 355.061 74.1594 352.854 77.8778C350.696 81.5467 347.753 84.3975 344.026 86.4303C340.347 88.4135 336.301 89.405 331.886 89.405ZM331.15 87.6946C334.29 87.6946 337.061 86.9013 339.464 85.3147C341.867 83.6786 343.731 81.274 345.056 78.1009C346.429 74.9278 347.116 71.135 347.116 66.7224C347.116 62.5082 346.478 58.6906 345.203 55.2696C343.927 51.799 342.113 49.0722 339.758 47.089C337.404 45.1058 334.682 44.1142 331.592 44.1142C328.551 44.1142 326.466 44.4117 325.338 45.0066C324.21 45.6016 323.646 46.8659 323.646 48.7995V82.2656C323.646 84.2488 324.161 85.6618 325.191 86.5046C326.221 87.2979 328.208 87.6946 331.15 87.6946Z" fill="white"/>
<path d="M392.589 90C388.027 90 383.956 88.934 380.376 86.8021C376.844 84.6206 374.098 81.6954 372.136 78.0266C370.223 74.3081 369.267 70.2674 369.267 65.9044C369.267 60.7977 370.542 56.4347 373.092 52.8154C375.643 49.1465 378.904 46.3949 382.877 44.5604C386.899 42.726 390.995 41.8088 395.164 41.8088C399.823 41.8088 403.919 42.9243 407.45 45.1554C410.982 47.3369 413.679 50.2373 415.543 53.8566C417.456 57.4759 418.413 61.3183 418.413 65.3838C418.413 69.8955 417.235 74.0354 414.881 77.8035C412.527 81.5715 409.363 84.5463 405.39 86.7278C401.467 88.9093 397.199 90 392.589 90ZM395.017 88.1408C397.763 88.1408 400.216 87.3475 402.374 85.761C404.581 84.1248 406.298 81.7698 407.524 78.6959C408.75 75.5724 409.363 71.8539 409.363 67.5405C409.363 62.9792 408.677 58.9137 407.303 55.344C405.93 51.7247 403.943 48.8986 401.344 46.8659C398.744 44.8331 395.703 43.8167 392.221 43.8167C387.758 43.8167 384.324 45.5272 381.921 48.9482C379.518 52.3196 378.316 57.0544 378.316 63.1527C378.316 67.9619 379.027 72.2753 380.449 76.093C381.921 79.861 383.907 82.811 386.409 84.9429C388.959 87.0748 391.829 88.1408 395.017 88.1408Z" fill="white"/>
<path d="M466.676 82.7862C466.676 84.0753 466.774 85.0173 466.97 85.6122C467.166 86.1576 467.534 86.5294 468.074 86.7278C468.662 86.9261 469.594 87.0252 470.869 87.0252H473.371C477.197 87.0252 480.507 86.0089 483.303 83.9761C486.099 81.8938 487.963 79.0925 488.895 75.5724C488.895 75.4732 488.993 75.4236 489.189 75.4236C489.287 75.4236 489.385 75.4732 489.483 75.5724C489.63 75.622 489.704 75.6715 489.704 75.7211C489.262 80.6295 489.042 84.7198 489.042 87.992C489.042 88.3887 488.944 88.6861 488.747 88.8845C488.6 89.0332 488.33 89.1076 487.938 89.1076H453.212C453.114 89.1076 453.065 88.9588 453.065 88.6614C453.065 88.3639 453.114 88.2151 453.212 88.2151C454.782 88.2151 455.91 88.0912 456.596 87.8433C457.332 87.5954 457.823 87.1244 458.068 86.4303C458.362 85.6866 458.509 84.571 458.509 83.0837V48.6507C458.509 47.1633 458.362 46.0726 458.068 45.3785C457.823 44.6844 457.332 44.2134 456.596 43.9655C455.861 43.668 454.733 43.5193 453.212 43.5193C453.114 43.5193 453.065 43.3705 453.065 43.073C453.065 42.7756 453.114 42.6268 453.212 42.6268L456.964 42.7012C459.22 42.8004 461.084 42.8499 462.556 42.8499C464.027 42.8499 465.891 42.8004 468.147 42.7012L471.899 42.6268C472.047 42.6268 472.12 42.7756 472.12 43.073C472.12 43.3705 472.047 43.5193 471.899 43.5193C470.379 43.5193 469.251 43.668 468.515 43.9655C467.779 44.2134 467.289 44.7092 467.044 45.4529C466.798 46.147 466.676 47.2377 466.676 48.7251V82.7862Z" fill="white"/>
<path d="M523.909 90C519.348 90 515.277 88.934 511.696 86.8021C508.165 84.6206 505.418 81.6954 503.456 78.0266C501.543 74.3081 500.587 70.2674 500.587 65.9044C500.587 60.7977 501.862 56.4347 504.412 52.8154C506.963 49.1465 510.225 46.3949 514.198 44.5604C518.219 42.726 522.315 41.8088 526.484 41.8088C531.144 41.8088 535.239 42.9243 538.771 45.1554C542.302 47.3369 545 50.2373 546.863 53.8566C548.776 57.4759 549.733 61.3183 549.733 65.3838C549.733 69.8955 548.556 74.0354 546.201 77.8035C543.847 81.5715 540.683 84.5463 536.711 86.7278C532.787 88.9093 528.52 90 523.909 90ZM526.337 88.1408C529.084 88.1408 531.536 87.3475 533.694 85.761C535.901 84.1248 537.618 81.7698 538.844 78.6959C540.07 75.5724 540.683 71.8539 540.683 67.5405C540.683 62.9792 539.997 58.9137 538.623 55.344C537.25 51.7247 535.264 48.8986 532.664 46.8659C530.065 44.8331 527.024 43.8167 523.541 43.8167C519.078 43.8167 515.644 45.5272 513.241 48.9482C510.838 52.3196 509.636 57.0544 509.636 63.1527C509.636 67.9619 510.347 72.2753 511.77 76.093C513.241 79.861 515.228 82.811 517.729 84.9429C520.279 87.0748 523.149 88.1408 526.337 88.1408Z" fill="white"/>
<path d="M575.088 82.7862C575.088 84.3727 575.259 85.5378 575.603 86.2815C575.946 86.9757 576.583 87.4714 577.515 87.7689C578.496 88.0664 580.041 88.2151 582.15 88.2151C582.298 88.2151 582.371 88.3639 582.371 88.6614C582.371 88.9588 582.298 89.1076 582.15 89.1076C580.139 89.1076 578.57 89.0828 577.442 89.0332L571.041 88.9588L565.67 89.0332C564.689 89.0828 563.365 89.1076 561.697 89.1076C561.55 89.1076 561.477 88.9588 561.477 88.6614C561.477 88.3639 561.55 88.2151 561.697 88.2151C563.267 88.2151 564.395 88.0912 565.082 87.8433C565.817 87.5954 566.308 87.1244 566.553 86.4303C566.798 85.6866 566.921 84.571 566.921 83.0837V48.6507C566.921 47.1633 566.798 46.0726 566.553 45.3785C566.308 44.6844 565.817 44.2134 565.082 43.9655C564.346 43.668 563.218 43.5193 561.697 43.5193C561.55 43.5193 561.477 43.3705 561.477 43.073C561.477 42.7756 561.55 42.6268 561.697 42.6268L565.597 42.7012C567.853 42.8004 569.643 42.8499 570.967 42.8499C572.145 42.8499 573.543 42.7756 575.161 42.6268C575.799 42.5772 576.608 42.5277 577.589 42.4781C578.57 42.4285 579.698 42.4037 580.973 42.4037C585.976 42.4037 589.924 43.4697 592.818 45.6016C595.712 47.6839 597.159 50.9314 597.159 55.344C597.159 58.4179 596.374 61.0208 594.805 63.1527C593.235 65.2846 591.2 66.896 588.698 67.9867C586.246 69.0775 583.72 69.6228 581.12 69.6228C579.796 69.6228 578.643 69.4989 577.663 69.251C577.564 69.251 577.515 69.127 577.515 68.8792C577.515 68.7304 577.54 68.5817 577.589 68.4329C577.687 68.2842 577.785 68.2346 577.883 68.2842C578.619 68.4825 579.453 68.5817 580.385 68.5817C582.641 68.5817 584.505 67.5157 585.976 65.3838C587.497 63.2519 588.257 60.2275 588.257 56.3108C588.257 52.394 587.423 49.3696 585.755 47.2377C584.137 45.1058 581.758 44.0398 578.619 44.0398C577.246 44.0398 576.314 44.3621 575.823 45.0066C575.333 45.6512 575.088 46.9154 575.088 48.7995V82.7862Z" fill="white"/>
<path d="M642.239 77.2829C642.239 77.1837 642.337 77.1341 642.533 77.1341C642.681 77.1341 642.803 77.1837 642.901 77.2829C643.048 77.3324 643.122 77.382 643.122 77.4316C642.631 81.2988 642.386 84.8189 642.386 87.992C642.386 88.3887 642.313 88.6861 642.166 88.8845C642.018 89.0332 641.724 89.1076 641.283 89.1076H608.764C608.617 89.1076 608.543 88.9588 608.543 88.6614C608.543 88.3639 608.617 88.2151 608.764 88.2151C610.333 88.2151 611.462 88.0912 612.148 87.8433C612.884 87.5954 613.374 87.1244 613.62 86.4303C613.865 85.6866 613.988 84.571 613.988 83.0837V48.6507C613.988 47.1633 613.865 46.0726 613.62 45.3785C613.374 44.6844 612.884 44.2134 612.148 43.9655C611.413 43.668 610.284 43.5193 608.764 43.5193C608.617 43.5193 608.543 43.3705 608.543 43.073C608.543 42.7756 608.617 42.6268 608.764 42.6268H639.958C640.449 42.6268 640.694 42.8499 640.694 43.2961L640.841 53.1873C640.841 53.2864 640.694 53.3608 640.4 53.4104C640.155 53.4599 640.007 53.4104 639.958 53.2616C639.174 50.386 637.849 48.2541 635.985 46.8659C634.122 45.4776 631.669 44.7835 628.628 44.7835H626.421C624.95 44.7835 623.871 45.1058 623.184 45.7503C622.497 46.3949 622.154 47.3865 622.154 48.7251V63.8964H628.26C631.105 63.8964 633.288 63.4006 634.808 62.409C636.329 61.4174 637.089 60.0292 637.089 58.2444C637.089 58.0956 637.212 58.0212 637.457 58.0212C637.751 58.0212 637.898 58.0956 637.898 58.2444L637.825 64.9376L637.898 68.5073C637.996 70.193 638.046 71.5317 638.046 72.5232C638.046 72.6224 637.898 72.672 637.604 72.672C637.31 72.672 637.163 72.6224 637.163 72.5232C637.163 70.4905 636.378 68.9039 634.808 67.7636C633.288 66.5737 631.081 65.9787 628.187 65.9787H622.154V82.7862C622.154 84.224 622.424 85.29 622.963 85.9841C623.503 86.6782 624.361 87.0252 625.538 87.0252H627.966C631.792 87.0252 634.857 86.232 637.163 84.6454C639.468 83.0589 641.16 80.6047 642.239 77.2829ZM620.388 38.6853C620.192 38.6853 620.069 38.5861 620.02 38.3878C619.971 38.1399 620.02 37.9664 620.168 37.8672C621.59 36.826 623.576 35.1899 626.127 32.9588C627.598 31.6698 628.702 30.7278 629.438 30.1328C629.683 29.8849 630.541 29.9841 632.013 30.4303C633.533 30.8269 634.857 31.3227 635.985 31.9177C637.163 32.463 637.457 32.7853 636.868 32.8845C633.827 33.6282 631.032 34.471 628.481 35.413C625.98 36.3054 623.331 37.3714 620.535 38.6109L620.388 38.6853Z" fill="white"/>
<path d="M682.465 44.4861C682.612 44.2382 682.661 44.0894 682.612 44.0398C682.612 43.9407 682.441 43.8911 682.097 43.8911C676.506 43.8911 672.239 44.1142 669.296 44.5604C666.402 44.9571 664.023 45.8495 662.159 47.2377C660.295 48.5764 658.677 50.6835 657.304 53.5591C657.254 53.6087 657.156 53.6335 657.009 53.6335C656.568 53.6335 656.372 53.5343 656.421 53.336L659.364 40.3958C659.364 40.3462 659.462 40.3214 659.658 40.3214C660.148 40.3214 660.344 40.3958 660.246 40.5445C660.197 40.6932 660.173 40.8915 660.173 41.1394C660.173 41.7344 660.443 42.131 660.982 42.3294C661.571 42.5277 662.723 42.6268 664.44 42.6268H691.294C691.539 42.6268 691.711 42.7508 691.809 42.9987C691.956 43.2466 691.956 43.4449 691.809 43.5936L666.353 87.0996C666.157 87.3475 666.083 87.521 666.132 87.6202C666.181 87.6698 666.353 87.6946 666.647 87.6946H681.509C683.274 87.6946 684.991 87.2483 686.659 86.3559C688.326 85.4139 689.749 84.1744 690.926 82.6375C692.103 81.1005 692.839 79.4644 693.133 77.7291C693.182 77.5803 693.329 77.506 693.575 77.506C693.82 77.506 693.942 77.5803 693.942 77.7291L692.912 88.5126C692.912 88.6614 692.839 88.8349 692.692 89.0332C692.594 89.1819 692.446 89.2563 692.25 89.2563C684.942 89.1571 673.195 89.1076 657.009 89.1076C656.813 89.1076 656.666 89.0084 656.568 88.8101C656.47 88.5622 656.494 88.3391 656.641 88.1408L682.465 44.4861Z" fill="white"/>
<path d="M777.877 88.2151C777.975 88.2151 778.024 88.3639 778.024 88.6614C778.024 88.9588 777.975 89.1076 777.877 89.1076H764.781C763.702 89.1076 761.691 87.0748 758.748 83.0093C755.805 78.8942 752.249 73.1678 748.08 65.83C747.688 65.8796 747.124 65.9044 746.388 65.9044C744.475 65.9044 743.126 65.8796 742.341 65.83V83.0837C742.341 84.6206 742.464 85.7362 742.709 86.4303C742.954 87.1244 743.42 87.5954 744.107 87.8433C744.843 88.0912 745.995 88.2151 747.565 88.2151C747.663 88.2151 747.712 88.3639 747.712 88.6614C747.712 88.9588 747.663 89.1076 747.565 89.1076C745.946 89.1076 744.671 89.0828 743.739 89.0332L738.148 88.9588L732.777 89.0332C731.796 89.0828 730.472 89.1076 728.804 89.1076C728.657 89.1076 728.583 88.9588 728.583 88.6614C728.583 88.3639 728.657 88.2151 728.804 88.2151C730.374 88.2151 731.502 88.0912 732.188 87.8433C732.924 87.5954 733.415 87.1244 733.66 86.4303C733.954 85.6866 734.101 84.571 734.101 83.0837V48.6507C734.101 47.1633 733.979 46.0726 733.733 45.3785C733.488 44.6844 732.998 44.2134 732.262 43.9655C731.526 43.668 730.398 43.5193 728.878 43.5193C728.78 43.5193 728.73 43.3705 728.73 43.073C728.73 42.7756 728.78 42.6268 728.878 42.6268L732.777 42.7012C735.033 42.8004 736.823 42.8499 738.148 42.8499C739.57 42.8499 741.14 42.7756 742.856 42.6268C743.396 42.5772 744.083 42.5277 744.916 42.4781C745.799 42.4285 746.829 42.4037 748.006 42.4037C752.519 42.4037 756.001 43.2466 758.454 44.9323C760.955 46.5684 762.206 48.8738 762.206 51.8486C762.206 54.1293 761.519 56.3108 760.146 58.3931C758.772 60.4754 756.982 62.1611 754.775 63.4502C758.699 69.6972 761.985 74.5808 764.634 78.1009C767.331 81.6211 769.71 84.1992 771.77 85.8353C773.879 87.4219 775.915 88.2151 777.877 88.2151ZM742.341 63.6733C743.518 63.8716 744.941 63.9708 746.609 63.9708C748.374 63.9708 749.772 63.6981 750.802 63.1527C751.832 62.6073 752.568 61.6653 753.009 60.3267C753.5 58.988 753.745 57.104 753.745 54.6746C753.745 50.6091 753.156 47.8079 751.979 46.2709C750.802 44.7339 749.11 43.9655 746.903 43.9655C745.235 43.9655 744.058 44.3373 743.371 45.081C742.685 45.8247 742.341 47.0642 742.341 48.7995V63.6733Z" fill="white"/>
<path d="M819.536 77.2829C819.536 77.1837 819.634 77.1341 819.83 77.1341C819.978 77.1341 820.1 77.1837 820.198 77.2829C820.345 77.3324 820.419 77.382 820.419 77.4316C819.928 81.2988 819.683 84.8189 819.683 87.992C819.683 88.3887 819.61 88.6861 819.463 88.8845C819.315 89.0332 819.021 89.1076 818.58 89.1076H786.061C785.914 89.1076 785.84 88.9588 785.84 88.6614C785.84 88.3639 785.914 88.2151 786.061 88.2151C787.63 88.2151 788.759 88.0912 789.445 87.8433C790.181 87.5954 790.671 87.1244 790.917 86.4303C791.162 85.6866 791.284 84.571 791.284 83.0837V48.6507C791.284 47.1633 791.162 46.0726 790.917 45.3785C790.671 44.6844 790.181 44.2134 789.445 43.9655C788.709 43.668 787.581 43.5193 786.061 43.5193C785.914 43.5193 785.84 43.3705 785.84 43.073C785.84 42.7756 785.914 42.6268 786.061 42.6268H817.255C817.746 42.6268 817.991 42.8499 817.991 43.2961L818.138 53.1873C818.138 53.2864 817.991 53.3608 817.697 53.4104C817.452 53.4599 817.304 53.4104 817.255 53.2616C816.471 50.386 815.146 48.2541 813.282 46.8659C811.419 45.4776 808.966 44.7835 805.925 44.7835H803.718C802.247 44.7835 801.168 45.1058 800.481 45.7503C799.794 46.3949 799.451 47.3865 799.451 48.7251V63.8964H805.557C808.402 63.8964 810.585 63.4006 812.105 62.409C813.626 61.4174 814.386 60.0292 814.386 58.2444C814.386 58.0956 814.509 58.0212 814.754 58.0212C815.048 58.0212 815.195 58.0956 815.195 58.2444L815.122 64.9376L815.195 68.5073C815.293 70.193 815.343 71.5317 815.343 72.5232C815.343 72.6224 815.195 72.672 814.901 72.672C814.607 72.672 814.46 72.6224 814.46 72.5232C814.46 70.4905 813.675 68.9039 812.105 67.7636C810.585 66.5737 808.378 65.9787 805.484 65.9787H799.451V82.7862C799.451 84.224 799.721 85.29 800.26 85.9841C800.8 86.6782 801.658 87.0252 802.835 87.0252H805.263C809.089 87.0252 812.154 86.232 814.46 84.6454C816.765 83.0589 818.457 80.6047 819.536 77.2829Z" fill="white"/>
<path d="M875.507 42.6268C875.605 42.6268 875.654 42.7756 875.654 43.073C875.654 43.3705 875.605 43.5193 875.507 43.5193C873.986 43.5193 872.122 44.4861 869.915 46.4197C867.708 48.3037 865.746 50.6835 864.029 53.5591L856.378 66.4993V83.0837C856.378 84.6206 856.5 85.7362 856.746 86.4303C856.991 87.1244 857.457 87.5954 858.143 87.8433C858.879 88.0912 860.032 88.2151 861.601 88.2151C861.749 88.2151 861.822 88.3639 861.822 88.6614C861.822 88.9588 861.749 89.1076 861.601 89.1076C859.983 89.1076 858.708 89.0828 857.776 89.0332L852.258 88.9588L846.813 89.0332C845.833 89.0828 844.508 89.1076 842.841 89.1076C842.742 89.1076 842.693 88.9588 842.693 88.6614C842.693 88.3639 842.742 88.2151 842.841 88.2151C844.41 88.2151 845.563 88.0912 846.298 87.8433C847.034 87.5954 847.525 87.1244 847.77 86.4303C848.064 85.6866 848.211 84.571 848.211 83.0837V68.0611L837.47 51.1793C835.655 48.3037 834.135 46.3205 832.908 45.2297C831.731 44.0894 830.726 43.5193 829.892 43.5193C829.745 43.5193 829.671 43.3705 829.671 43.073C829.671 42.7756 829.745 42.6268 829.892 42.6268L832.173 42.7012C833.252 42.8004 834.012 42.8499 834.453 42.8499C836.17 42.8499 838.647 42.8004 841.884 42.7012L846.74 42.6268C846.838 42.6268 846.887 42.7756 846.887 43.073C846.887 43.3705 846.838 43.5193 846.74 43.5193C845.906 43.5193 845.244 43.7176 844.753 44.1142C844.312 44.5108 844.091 45.0314 844.091 45.676C844.091 46.4692 844.435 47.4112 845.121 48.502L855.201 64.5657L861.969 52.8898C863.294 50.6587 863.956 48.7499 863.956 47.1633C863.956 45.9734 863.588 45.081 862.852 44.4861C862.165 43.8415 861.16 43.5193 859.836 43.5193C859.689 43.5193 859.615 43.3705 859.615 43.073C859.615 42.7756 859.689 42.6268 859.836 42.6268L863.735 42.7012C865.991 42.8004 868.002 42.8499 869.768 42.8499C870.602 42.8499 871.607 42.8004 872.784 42.7012L875.507 42.6268Z" fill="white"/>
<path d="M917.453 77.2829C917.453 77.1837 917.551 77.1341 917.747 77.1341C917.894 77.1341 918.017 77.1837 918.115 77.2829C918.262 77.3324 918.336 77.382 918.336 77.4316C917.845 81.2988 917.6 84.8189 917.6 87.992C917.6 88.3887 917.527 88.6861 917.379 88.8845C917.232 89.0332 916.938 89.1076 916.496 89.1076H883.978C883.831 89.1076 883.757 88.9588 883.757 88.6614C883.757 88.3639 883.831 88.2151 883.978 88.2151C885.547 88.2151 886.675 88.0912 887.362 87.8433C888.098 87.5954 888.588 87.1244 888.833 86.4303C889.079 85.6866 889.201 84.571 889.201 83.0837V48.6507C889.201 47.1633 889.079 46.0726 888.833 45.3785C888.588 44.6844 888.098 44.2134 887.362 43.9655C886.626 43.668 885.498 43.5193 883.978 43.5193C883.831 43.5193 883.757 43.3705 883.757 43.073C883.757 42.7756 883.831 42.6268 883.978 42.6268H915.172C915.663 42.6268 915.908 42.8499 915.908 43.2961L916.055 53.1873C916.055 53.2864 915.908 53.3608 915.614 53.4104C915.368 53.4599 915.221 53.4104 915.172 53.2616C914.387 50.386 913.063 48.2541 911.199 46.8659C909.336 45.4776 906.883 44.7835 903.842 44.7835H901.635C900.164 44.7835 899.084 45.1058 898.398 45.7503C897.711 46.3949 897.368 47.3865 897.368 48.7251V63.8964H903.474C906.319 63.8964 908.502 63.4006 910.022 62.409C911.543 61.4174 912.303 60.0292 912.303 58.2444C912.303 58.0956 912.426 58.0212 912.671 58.0212C912.965 58.0212 913.112 58.0956 913.112 58.2444L913.039 64.9376L913.112 68.5073C913.21 70.193 913.259 71.5317 913.259 72.5232C913.259 72.6224 913.112 72.672 912.818 72.672C912.524 72.672 912.377 72.6224 912.377 72.5232C912.377 70.4905 911.592 68.9039 910.022 67.7636C908.502 66.5737 906.295 65.9787 903.401 65.9787H897.368V82.7862C897.368 84.224 897.638 85.29 898.177 85.9841C898.717 86.6782 899.575 87.0252 900.752 87.0252H903.18C907.006 87.0252 910.071 86.232 912.377 84.6454C914.682 83.0589 916.374 80.6047 917.453 77.2829Z" fill="white"/>
<path d="M979.53 88.2151C979.628 88.2151 979.677 88.3639 979.677 88.6614C979.677 88.9588 979.628 89.1076 979.53 89.1076H966.434C965.355 89.1076 963.344 87.0748 960.401 83.0093C957.458 78.8942 953.902 73.1678 949.733 65.83C949.341 65.8796 948.777 65.9044 948.041 65.9044C946.128 65.9044 944.779 65.8796 943.995 65.83V83.0837C943.995 84.6206 944.117 85.7362 944.362 86.4303C944.608 87.1244 945.074 87.5954 945.76 87.8433C946.496 88.0912 947.649 88.2151 949.218 88.2151C949.316 88.2151 949.365 88.3639 949.365 88.6614C949.365 88.9588 949.316 89.1076 949.218 89.1076C947.6 89.1076 946.324 89.0828 945.392 89.0332L939.801 88.9588L934.43 89.0332C933.449 89.0828 932.125 89.1076 930.457 89.1076C930.31 89.1076 930.237 88.9588 930.237 88.6614C930.237 88.3639 930.31 88.2151 930.457 88.2151C932.027 88.2151 933.155 88.0912 933.842 87.8433C934.577 87.5954 935.068 87.1244 935.313 86.4303C935.607 85.6866 935.755 84.571 935.755 83.0837V48.6507C935.755 47.1633 935.632 46.0726 935.387 45.3785C935.141 44.6844 934.651 44.2134 933.915 43.9655C933.18 43.668 932.051 43.5193 930.531 43.5193C930.433 43.5193 930.384 43.3705 930.384 43.073C930.384 42.7756 930.433 42.6268 930.531 42.6268L934.43 42.7012C936.686 42.8004 938.477 42.8499 939.801 42.8499C941.223 42.8499 942.793 42.7756 944.51 42.6268C945.049 42.5772 945.736 42.5277 946.57 42.4781C947.452 42.4285 948.482 42.4037 949.66 42.4037C954.172 42.4037 957.654 43.2466 960.107 44.9323C962.608 46.5684 963.859 48.8738 963.859 51.8486C963.859 54.1293 963.172 56.3108 961.799 58.3931C960.426 60.4754 958.635 62.1611 956.428 63.4502C960.352 69.6972 963.638 74.5808 966.287 78.1009C968.984 81.6211 971.363 84.1992 973.423 85.8353C975.532 87.4219 977.568 88.2151 979.53 88.2151ZM943.995 63.6733C945.172 63.8716 946.594 63.9708 948.262 63.9708C950.027 63.9708 951.425 63.6981 952.455 63.1527C953.485 62.6073 954.221 61.6653 954.663 60.3267C955.153 58.988 955.398 57.104 955.398 54.6746C955.398 50.6091 954.81 47.8079 953.632 46.2709C952.455 44.7339 950.763 43.9655 948.556 43.9655C946.888 43.9655 945.711 44.3373 945.025 45.081C944.338 45.8247 943.995 47.0642 943.995 48.7995V63.6733Z" fill="white"/>
<path d="M1008.18 90C1003.61 90 999.544 88.934 995.963 86.8021C992.432 84.6206 989.685 81.6954 987.723 78.0266C985.81 74.3081 984.854 70.2674 984.854 65.9044C984.854 60.7977 986.129 56.4347 988.68 52.8154C991.23 49.1465 994.492 46.3949 998.465 44.5604C1002.49 42.726 1006.58 41.8088 1010.75 41.8088C1015.41 41.8088 1019.51 42.9243 1023.04 45.1554C1026.57 47.3369 1029.27 50.2373 1031.13 53.8566C1033.04 57.4759 1034 61.3183 1034 65.3838C1034 69.8955 1032.82 74.0354 1030.47 77.8035C1028.11 81.5715 1024.95 84.5463 1020.98 86.7278C1017.05 88.9093 1012.79 90 1008.18 90ZM1010.6 88.1408C1013.35 88.1408 1015.8 87.3475 1017.96 85.761C1020.17 84.1248 1021.89 81.7698 1023.11 78.6959C1024.34 75.5724 1024.95 71.8539 1024.95 67.5405C1024.95 62.9792 1024.26 58.9137 1022.89 55.344C1021.52 51.7247 1019.53 48.8986 1016.93 46.8659C1014.33 44.8331 1011.29 43.8167 1007.81 43.8167C1003.35 43.8167 999.912 45.5272 997.508 48.9482C995.105 52.3196 993.903 57.0544 993.903 63.1527C993.903 67.9619 994.615 72.2753 996.037 76.093C997.508 79.861 999.495 82.811 1002 84.9429C1004.55 87.0748 1007.42 88.1408 1010.6 88.1408Z" fill="white"/>
<path fill-rule="evenodd" clip-rule="evenodd" d="M1081.5 5H4V0H1081.5V5Z" fill="white"/>
<path fill-rule="evenodd" clip-rule="evenodd" d="M1081.5 136.25H4V132.5H1081.5V136.25Z" fill="white"/>
</g>
<defs>
<filter id="filter0_ddddddd_63_402" x="0" y="0" width="1085.5" height="144.25" filterUnits="userSpaceOnUse" color-interpolation-filters="sRGB">
<feFlood flood-opacity="0" result="BackgroundImageFix"/>
<feColorMatrix in="SourceAlpha" type="matrix" values="0 0 0 0 0 0 0 0 0 0 0 0 0 0 0 0 0 0 127 0" result="hardAlpha"/>
<feOffset dy="4"/>
<feGaussianBlur stdDeviation="2"/>
<feComposite in2="hardAlpha" operator="out"/>
<feColorMatrix type="matrix" values="0 0 0 0 0 0 0 0 0 0 0 0 0 0 0 0 0 0 0.25 0"/>
<feBlend mode="normal" in2="BackgroundImageFix" result="effect1_dropShadow_63_402"/>
<feColorMatrix in="SourceAlpha" type="matrix" values="0 0 0 0 0 0 0 0 0 0 0 0 0 0 0 0 0 0 127 0" result="hardAlpha"/>
<feOffset dy="4"/>
<feGaussianBlur stdDeviation="2"/>
<feComposite in2="hardAlpha" operator="out"/>
<feColorMatrix type="matrix" values="0 0 0 0 0 0 0 0 0 0 0 0 0 0 0 0 0 0 0.25 0"/>
<feBlend mode="normal" in2="effect1_dropShadow_63_402" result="effect2_dropShadow_63_402"/>
<feColorMatrix in="SourceAlpha" type="matrix" values="0 0 0 0 0 0 0 0 0 0 0 0 0 0 0 0 0 0 127 0" result="hardAlpha"/>
<feOffset dy="4"/>
<feGaussianBlur stdDeviation="2"/>
<feComposite in2="hardAlpha" operator="out"/>
<feColorMatrix type="matrix" values="0 0 0 0 0 0 0 0 0 0 0 0 0 0 0 0 0 0 0.25 0"/>
<feBlend mode="normal" in2="effect2_dropShadow_63_402" result="effect3_dropShadow_63_402"/>
<feColorMatrix in="SourceAlpha" type="matrix" values="0 0 0 0 0 0 0 0 0 0 0 0 0 0 0 0 0 0 127 0" result="hardAlpha"/>
<feOffset dy="4"/>
<feGaussianBlur stdDeviation="2"/>
<feComposite in2="hardAlpha" operator="out"/>
<feColorMatrix type="matrix" values="0 0 0 0 0 0 0 0 0 0 0 0 0 0 0 0 0 0 0.25 0"/>
<feBlend mode="normal" in2="effect3_dropShadow_63_402" result="effect4_dropShadow_63_402"/>
<feColorMatrix in="SourceAlpha" type="matrix" values="0 0 0 0 0 0 0 0 0 0 0 0 0 0 0 0 0 0 127 0" result="hardAlpha"/>
<feOffset dy="4"/>
<feGaussianBlur stdDeviation="2"/>
<feComposite in2="hardAlpha" operator="out"/>
<feColorMatrix type="matrix" values="0 0 0 0 0 0 0 0 0 0 0 0 0 0 0 0 0 0 0.25 0"/>
<feBlend mode="normal" in2="effect4_dropShadow_63_402" result="effect5_dropShadow_63_402"/>
<feColorMatrix in="SourceAlpha" type="matrix" values="0 0 0 0 0 0 0 0 0 0 0 0 0 0 0 0 0 0 127 0" result="hardAlpha"/>
<feOffset dy="4"/>
<feGaussianBlur stdDeviation="2"/>
<feComposite in2="hardAlpha" operator="out"/>
<feColorMatrix type="matrix" values="0 0 0 0 0 0 0 0 0 0 0 0 0 0 0 0 0 0 0.25 0"/>
<feBlend mode="normal" in2="effect5_dropShadow_63_402" result="effect6_dropShadow_63_402"/>
<feColorMatrix in="SourceAlpha" type="matrix" values="0 0 0 0 0 0 0 0 0 0 0 0 0 0 0 0 0 0 127 0" result="hardAlpha"/>
<feOffset dy="4"/>
<feGaussianBlur stdDeviation="2"/>
<feComposite in2="hardAlpha" operator="out"/>
<feColorMatrix type="matrix" values="0 0 0 0 0 0 0 0 0 0 0 0 0 0 0 0 0 0 0.25 0"/>
<feBlend mode="normal" in2="effect6_dropShadow_63_402" result="effect7_dropShadow_63_402"/>
<feBlend mode="normal" in="SourceGraphic" in2="effect7_dropShadow_63_402" result="shape"/>
</filter>
</defs>
</svg>
